<svg id="svg" version="1.1" xmlns="http://www.w3.org/2000/svg" xmlns:xlink="http://www.w3.org/1999/xlink" width="400" height="400" viewBox="0, 0, 400,400"><g id="svgg"><path id="path0" d="M194.002 61.947 C 172.310 67.198,172.248 99.373,193.918 105.673 L 196.194 106.335 196.001 108.741 C 195.475 115.291,191.185 119.420,173.149 130.736 C 154.363 142.522,147.458 148.737,143.318 157.582 C 141.340 161.809,141.030 164.310,141.022 176.074 C 141.019 181.929,140.861 186.719,140.673 186.719 C 140.484 186.719,137.826 186.204,134.767 185.574 C 125.452 183.657,126.122 182.035,126.259 206.187 C 126.365 224.969,126.384 225.386,127.173 226.175 C 127.756 226.757,130.945 227.737,138.696 229.715 C 144.591 231.219,153.896 233.662,159.375 235.144 C 164.854 236.626,171.621 238.457,174.414 239.213 C 181.182 241.044,187.595 243.564,186.523 243.971 C 175.209 248.270,162.546 253.669,161.816 254.505 C 160.045 256.535,161.209 260.154,163.869 260.888 C 165.696 261.393,165.390 261.491,184.233 254.342 L 199.911 248.393 207.084 251.000 C 211.030 252.434,218.389 255.194,223.438 257.133 C 236.072 261.984,236.873 262.086,238.451 259.035 C 240.620 254.839,237.571 252.924,216.510 245.258 C 214.526 244.536,212.900 243.844,212.897 243.720 C 212.878 243.030,238.194 235.691,263.281 229.114 C 269.871 227.387,271.890 226.705,272.656 225.948 L 273.633 224.983 273.749 206.730 C 273.905 182.030,274.536 183.474,264.574 185.729 C 257.822 187.258,258.594 188.572,258.594 175.545 C 258.594 166.630,258.469 163.885,257.976 161.970 C 255.483 152.281,247.038 143.450,230.091 132.813 C 208.180 119.059,204.452 115.570,203.991 108.394 L 203.810 105.574 205.323 105.293 C 207.023 104.977,212.569 102.334,214.063 101.127 C 215.005 100.365,215.008 100.354,214.123 100.789 C 213.620 101.036,211.598 101.334,209.631 101.450 C 191.723 102.510,181.335 83.123,192.793 70.025 C 195.835 66.548,202.958 62.891,206.690 62.891 C 208.486 62.891,207.663 62.284,205.157 61.760 C 202.361 61.177,196.800 61.270,194.002 61.947 M209.580 72.355 C 208.972 74.132,208.220 76.093,207.910 76.713 L 207.347 77.841 203.966 77.593 C 197.610 77.126,197.746 77.971,204.825 82.938 C 205.520 83.426,205.502 83.598,204.337 87.492 C 202.849 92.467,202.713 92.364,207.057 89.540 L 210.650 87.205 214.321 89.554 C 218.718 92.367,218.534 92.475,217.148 87.891 C 216.531 85.850,216.024 83.992,216.021 83.763 C 216.018 83.533,217.510 82.144,219.336 80.675 C 223.609 77.239,223.591 77.185,218.254 77.508 L 213.851 77.775 212.546 73.751 C 210.860 68.554,210.880 68.564,209.580 72.355 M208.620 128.982 C 210.647 130.420,215.879 133.848,220.247 136.599 C 240.041 149.066,246.785 155.286,249.616 163.692 C 250.319 165.777,250.391 167.058,250.391 177.478 L 250.391 188.965 244.238 190.431 C 220.743 196.028,206.549 201.743,200.876 207.890 L 199.995 208.845 198.268 207.191 C 191.504 200.710,179.072 195.879,154.590 190.217 L 149.219 188.975 149.225 178.179 C 149.236 157.584,151.659 154.210,178.453 137.500 C 189.007 130.918,194.645 126.832,197.656 123.583 L 199.805 121.265 202.370 123.816 C 203.781 125.219,206.593 127.544,208.620 128.982 M138.086 194.936 C 142.625 195.824,168.609 202.304,173.047 203.654 C 186.400 207.719,194.426 213.301,198.816 221.577 L 199.742 223.321 201.961 219.961 C 207.146 212.110,214.331 207.570,227.930 203.550 C 232.265 202.269,257.188 195.985,261.506 195.085 C 263.020 194.769,264.565 194.416,264.941 194.300 C 265.564 194.107,265.625 194.472,265.625 198.385 C 265.625 202.140,265.539 202.707,264.941 202.883 C 264.565 202.993,261.270 203.801,257.617 204.678 C 223.640 212.837,211.757 216.846,202.423 223.299 L 199.964 224.999 196.980 222.986 C 192.888 220.224,183.995 216.009,178.173 214.072 C 174.049 212.699,139.482 203.605,135.669 202.890 L 134.375 202.647 134.375 198.368 C 134.375 194.478,134.437 194.106,135.059 194.283 C 135.435 194.390,136.797 194.684,138.086 194.936 M265.625 215.569 L 265.625 220.201 256.738 222.428 C 232.699 228.453,217.096 232.922,208.727 236.182 C 205.109 237.591,201.676 238.917,201.098 239.128 C 200.210 239.453,198.917 239.078,192.700 236.688 C 181.656 232.443,172.620 229.814,143.945 222.506 L 134.570 220.117 134.459 215.918 C 134.325 210.828,133.099 211.061,145.209 213.879 C 178.011 221.513,186.430 224.744,196.939 233.733 L 199.932 236.293 203.189 233.574 C 212.059 226.167,217.731 223.634,236.328 218.775 C 241.764 217.355,265.286 211.072,265.527 210.976 C 265.581 210.955,265.625 213.022,265.625 215.569 M244.261 286.295 C 225.329 291.711,224.812 322.076,243.555 327.824 C 257.031 331.957,268.396 324.311,269.092 310.644 L 269.336 305.859 260.036 305.859 L 250.736 305.859 250.877 308.831 L 251.017 311.802 256.421 311.741 L 261.824 311.680 261.592 312.842 C 260.219 319.704,253.463 323.167,245.855 320.907 C 235.589 317.859,235.257 297.797,245.399 293.341 C 251.131 290.822,258.529 293.211,260.246 298.135 C 260.658 299.317,260.661 299.318,263.004 299.073 C 264.294 298.938,266.114 298.828,267.049 298.828 C 269.148 298.828,269.168 298.597,267.385 295.033 C 263.464 287.196,253.833 283.556,244.261 286.295 M57.813 307.031 L 57.813 327.734 61.719 327.734 L 65.625 327.734 65.625 307.031 L 65.625 286.328 61.719 286.328 L 57.813 286.328 57.813 307.031 M75.781 307.031 L 75.781 327.734 79.702 327.734 L 83.622 327.734 83.510 313.867 C 83.449 306.240,83.486 300.005,83.594 300.011 C 83.701 300.017,86.342 304.983,89.462 311.046 L 95.136 322.070 98.080 322.183 L 101.024 322.296 106.664 311.156 C 109.767 305.029,112.393 300.012,112.500 300.008 C 112.607 300.003,112.647 306.240,112.588 313.867 L 112.481 327.734 116.397 327.734 L 120.313 327.734 120.313 307.031 L 120.313 286.328 115.853 286.328 L 111.393 286.328 104.668 299.682 L 97.944 313.035 91.257 299.683 L 84.570 286.330 80.176 286.329 L 75.781 286.328 75.781 307.031 M141.131 294.438 C 139.368 298.893,135.791 307.988,133.182 314.648 C 130.573 321.309,128.349 326.978,128.240 327.246 C 128.089 327.618,129.019 327.734,132.155 327.734 L 136.269 327.734 138.096 323.062 L 139.923 318.390 148.699 318.472 L 157.475 318.555 159.324 323.047 L 161.174 327.539 165.363 327.650 L 169.553 327.761 169.024 326.478 C 168.732 325.773,165.005 316.450,160.741 305.762 L 152.988 286.328 148.662 286.332 L 144.336 286.336 141.131 294.438 M176.953 307.031 L 176.953 327.734 180.762 327.735 L 184.570 327.735 184.456 313.772 C 184.380 304.575,184.473 299.942,184.727 300.198 C 184.939 300.411,187.597 305.464,190.633 311.426 L 196.152 322.266 199.022 322.266 L 201.892 322.266 207.440 311.426 C 210.491 305.464,213.142 300.419,213.330 300.215 C 213.526 300.002,213.672 305.787,213.672 313.789 L 213.672 327.734 217.578 327.734 L 221.484 327.734 221.484 307.031 L 221.484 286.328 216.890 286.328 L 212.295 286.328 205.855 299.250 C 202.312 306.357,199.286 312.254,199.129 312.354 C 198.973 312.454,195.898 306.639,192.296 299.432 L 185.748 286.328 181.350 286.328 L 176.953 286.328 176.953 307.031 M278.529 307.031 L 278.564 327.734 282.446 327.734 L 286.328 327.734 286.328 320.748 L 286.328 313.762 292.871 313.573 C 305.343 313.211,309.823 309.640,309.902 300.000 C 309.986 289.663,304.501 286.328,287.417 286.328 L 278.493 286.328 278.529 307.031 M314.453 289.844 L 314.453 293.359 320.508 293.359 L 326.563 293.359 326.563 310.547 L 326.563 327.734 330.469 327.734 L 334.375 327.734 334.375 310.547 L 334.375 293.359 340.625 293.359 L 346.875 293.359 346.875 289.844 L 346.875 286.328 330.664 286.328 L 314.453 286.328 314.453 289.844 M298.134 294.049 C 300.653 295.168,301.559 296.727,301.561 299.947 C 301.564 305.475,299.349 307.031,291.478 307.031 L 286.328 307.031 286.328 299.948 L 286.328 292.865 291.309 293.048 C 295.238 293.192,296.679 293.403,298.134 294.049 M151.866 303.516 C 153.399 307.490,154.768 311.050,154.908 311.426 C 155.143 312.059,154.699 312.109,148.870 312.109 C 145.409 312.109,142.578 311.989,142.578 311.843 C 142.578 311.025,148.597 295.715,148.816 295.976 C 148.961 296.148,150.333 299.541,151.866 303.516 " stroke="none" fill="#005a8d" fill-rule="evenodd"></path><path id="path1" d="M0.000 200.000 L 0.000 400.000 200.000 400.000 L 400.000 400.000 400.000 200.000 L 400.000 0.000 200.000 0.000 L 0.000 0.000 0.000 200.000 M205.784 61.772 C 207.940 62.294,208.795 62.891,207.387 62.891 C 200.610 62.891,191.951 69.064,189.437 75.687 C 183.653 90.923,197.459 104.653,214.453 100.567 C 217.122 99.926,209.574 104.082,205.907 105.273 L 203.807 105.955 204.001 108.373 C 204.537 115.053,208.542 119.115,224.414 129.075 C 244.353 141.587,251.257 147.524,255.700 155.979 C 258.559 161.419,258.681 162.154,258.882 175.098 C 258.981 181.489,259.126 186.719,259.205 186.719 C 259.283 186.719,261.821 186.191,264.844 185.547 C 271.550 184.117,271.287 184.118,272.686 185.517 L 273.828 186.659 273.828 205.458 C 273.828 226.673,273.910 226.042,271.004 227.097 C 270.087 227.430,266.172 228.512,262.305 229.500 C 258.438 230.489,252.197 232.153,248.438 233.198 C 244.678 234.243,238.086 236.076,233.789 237.272 C 221.388 240.725,212.560 243.636,213.477 243.972 C 234.565 251.704,239.063 253.976,239.063 256.898 C 239.063 261.794,236.227 262.217,227.128 258.678 C 216.974 254.727,200.763 248.777,200.037 248.733 C 199.455 248.698,189.053 252.555,173.633 258.524 C 164.517 262.053,162.072 261.936,160.963 257.921 C 159.977 254.349,161.426 253.543,185.810 244.108 C 187.297 243.532,181.916 241.335,173.552 239.103 C 170.374 238.255,161.885 235.974,154.688 234.035 C 147.490 232.095,138.613 229.764,134.961 228.855 C 129.491 227.493,128.131 227.013,127.246 226.131 L 126.172 225.060 126.172 205.676 L 126.172 186.293 127.131 185.334 C 128.338 184.126,128.516 184.131,135.156 185.547 C 138.179 186.191,140.723 186.719,140.809 186.719 C 140.894 186.719,141.020 181.313,141.089 174.707 C 141.306 153.596,145.235 148.180,173.032 130.666 C 191.297 119.158,195.252 115.366,195.949 108.695 L 196.187 106.422 194.237 105.922 C 177.614 101.661,171.722 79.691,183.952 67.568 C 189.337 62.229,198.082 59.908,205.784 61.772 M212.500 73.242 L 213.826 77.344 218.436 77.344 C 224.257 77.344,224.403 76.871,216.743 82.834 C 215.968 83.437,215.971 83.468,217.161 87.475 C 217.820 89.693,218.359 91.663,218.359 91.852 C 218.359 92.141,216.316 90.967,211.458 87.889 C 210.704 87.411,210.443 87.465,209.048 88.388 C 208.188 88.957,206.477 90.067,205.246 90.855 L 203.007 92.287 203.246 90.968 C 203.378 90.242,203.918 88.288,204.446 86.626 L 205.405 83.604 201.921 80.855 C 197.487 77.357,197.491 77.344,203.042 77.344 L 207.647 77.344 209.134 73.242 C 209.952 70.986,210.746 69.141,210.898 69.141 C 211.050 69.141,211.771 70.986,212.500 73.242 M198.974 122.369 C 197.066 125.285,189.980 130.475,175.954 139.229 C 152.015 154.172,149.631 157.608,149.618 177.198 L 149.609 188.966 153.418 189.821 C 177.904 195.317,191.073 200.365,198.138 206.962 L 199.988 208.689 202.289 206.559 C 208.600 200.716,224.508 194.651,246.219 189.810 L 250.445 188.867 250.319 176.953 C 250.194 165.222,250.176 165.003,249.203 162.692 C 245.879 154.803,239.534 148.937,223.155 138.610 C 210.626 130.710,205.944 127.414,202.696 124.204 L 199.706 121.250 198.974 122.369 M134.459 198.471 L 134.570 202.412 140.430 203.894 C 181.346 214.246,186.129 215.837,196.400 222.508 C 200.287 225.032,199.477 225.020,203.236 222.609 C 212.928 216.391,222.468 213.179,254.688 205.282 L 265.430 202.649 265.430 198.556 L 265.430 194.463 263.867 194.706 C 261.213 195.119,234.103 201.891,228.320 203.585 C 213.508 207.926,206.098 212.810,200.994 221.597 L 199.908 223.468 197.671 220.035 C 192.942 212.774,186.435 208.202,175.825 204.682 C 168.406 202.221,137.420 194.531,134.922 194.531 C 134.447 194.531,134.367 195.215,134.459 198.471 M260.352 212.503 C 258.203 213.101,250.996 215.025,244.336 216.778 C 216.166 224.194,212.928 225.525,203.208 233.677 L 199.970 236.392 197.233 234.114 C 186.648 225.305,180.894 222.845,156.836 216.841 C 148.390 214.733,135.501 211.719,134.926 211.718 C 134.727 211.718,134.623 213.578,134.691 215.944 L 134.812 220.170 138.597 221.076 C 161.116 226.466,182.063 232.455,192.511 236.491 L 200.061 239.407 207.550 236.493 C 217.165 232.751,229.990 229.079,259.570 221.599 L 265.430 220.117 265.540 215.723 C 265.669 210.584,266.156 210.886,260.352 212.503 M257.596 286.350 C 262.049 287.725,265.908 291.238,267.980 295.802 C 269.267 298.637,269.195 298.724,265.332 299.019 C 263.452 299.163,261.627 299.359,261.276 299.457 C 260.852 299.574,260.560 299.325,260.408 298.719 C 259.127 293.615,250.772 290.794,245.117 293.556 C 236.150 297.936,235.703 315.899,244.453 320.196 C 251.713 323.761,259.231 320.584,261.508 312.988 L 261.771 312.109 256.276 312.109 L 250.781 312.109 250.781 308.984 L 250.781 305.859 260.156 305.859 L 269.531 305.859 269.524 308.887 C 269.470 333.338,235.332 336.784,230.225 312.854 C 226.453 295.177,240.896 281.192,257.596 286.350 M65.727 307.129 L 65.634 327.930 61.723 328.041 L 57.813 328.152 57.813 307.240 L 57.813 286.328 61.816 286.328 L 65.820 286.328 65.727 307.129 M91.294 299.400 C 94.895 306.589,97.960 312.346,98.105 312.193 C 98.250 312.039,101.299 306.157,104.881 299.121 L 111.394 286.328 115.853 286.328 L 120.313 286.328 120.313 307.227 L 120.313 328.125 116.406 328.125 L 112.500 328.125 112.493 314.160 L 112.486 300.195 106.870 311.133 L 101.254 322.070 98.186 322.177 L 95.117 322.283 89.453 311.354 L 83.789 300.426 83.686 314.275 L 83.584 328.125 79.683 328.125 L 75.781 328.125 75.781 307.227 L 75.781 286.328 80.264 286.328 L 84.746 286.328 91.294 299.400 M161.369 306.983 C 165.858 318.236,169.531 327.588,169.531 327.766 C 169.531 327.944,167.657 328.054,165.365 328.010 L 161.199 327.930 159.358 323.438 L 157.517 318.945 148.720 318.840 L 139.922 318.736 138.057 323.430 L 136.191 328.125 132.158 328.125 C 129.385 328.125,128.125 327.985,128.125 327.677 C 128.125 327.303,131.761 317.945,142.867 289.734 L 144.217 286.304 148.712 286.414 L 153.207 286.523 161.369 306.983 M187.711 290.276 C 188.777 292.447,191.781 298.361,194.387 303.418 L 199.126 312.613 205.627 299.471 L 212.129 286.328 216.807 286.328 L 221.484 286.328 221.484 307.240 L 221.484 328.152 217.480 328.041 L 213.477 327.930 213.506 313.925 L 213.535 299.920 212.729 301.425 C 212.286 302.253,209.724 307.236,207.036 312.500 L 202.148 322.070 199.023 322.182 L 195.898 322.293 190.430 311.310 C 187.422 305.270,184.873 300.270,184.766 300.201 C 184.658 300.131,184.621 306.398,184.682 314.128 L 184.794 328.181 180.776 328.056 L 176.758 327.930 176.645 307.129 L 176.533 286.328 181.153 286.328 L 185.773 286.328 187.711 290.276 M302.378 287.743 C 308.833 290.801,311.607 297.426,309.432 304.587 C 307.410 311.245,302.906 313.659,292.489 313.667 L 286.736 313.672 286.630 320.801 L 286.523 327.930 282.520 328.049 L 278.516 328.169 278.516 307.220 L 278.516 286.272 289.160 286.398 L 299.805 286.523 302.378 287.743 M346.875 289.844 L 346.875 293.359 340.723 293.359 L 334.570 293.359 334.570 310.644 L 334.570 327.930 330.566 328.041 L 326.563 328.152 326.563 310.756 L 326.563 293.359 320.313 293.359 L 314.063 293.359 314.063 289.844 L 314.063 286.328 330.469 286.328 L 346.875 286.328 346.875 289.844 M286.639 300.160 L 286.754 307.031 291.536 307.031 C 298.819 307.031,301.178 305.515,301.489 300.632 C 301.842 295.094,299.892 293.614,291.992 293.422 L 286.523 293.289 286.639 300.160 M145.702 303.575 C 144.091 307.870,142.715 311.548,142.643 311.747 C 142.567 311.960,145.117 312.109,148.837 312.109 C 153.751 312.109,155.114 312.000,154.947 311.621 C 154.829 311.353,153.388 307.705,151.746 303.516 C 150.104 299.326,148.731 295.868,148.695 295.832 C 148.659 295.795,147.312 299.280,145.702 303.575 " stroke="none" fill="none" fill-rule="evenodd"></path><path id="path2" d="M248.242 146.484 C 249.081 147.344,249.856 148.047,249.963 148.047 C 250.071 148.047,249.472 147.344,248.633 146.484 C 247.794 145.625,247.019 144.922,246.912 144.922 C 246.804 144.922,247.403 145.625,248.242 146.484 M258.684 167.188 C 258.684 167.939,258.765 168.247,258.863 167.871 C 258.961 167.495,258.961 166.880,258.863 166.504 C 258.765 166.128,258.684 166.436,258.684 167.188 M149.390 178.320 C 149.390 184.121,149.444 186.549,149.511 183.715 C 149.577 180.881,149.577 176.135,149.511 173.168 C 149.444 170.201,149.390 172.520,149.390 178.320 M265.377 198.633 C 265.378 200.781,265.444 201.610,265.523 200.475 C 265.602 199.340,265.601 197.582,265.521 196.569 C 265.441 195.556,265.376 196.484,265.377 198.633 M134.520 216.016 C 134.520 218.271,134.584 219.194,134.663 218.066 C 134.742 216.938,134.742 215.093,134.663 213.965 C 134.584 212.837,134.520 213.760,134.520 216.016 M192.578 213.794 C 192.578 213.861,193.149 214.433,193.848 215.064 L 195.117 216.211 193.970 214.941 C 192.900 213.758,192.578 213.492,192.578 213.794 M176.724 293.164 C 176.724 297.031,176.783 298.560,176.854 296.562 C 176.925 294.564,176.925 291.400,176.853 289.531 C 176.782 287.662,176.723 289.297,176.724 293.164 M286.489 300.391 C 286.489 304.150,286.547 305.688,286.619 303.809 C 286.691 301.929,286.691 298.853,286.619 296.973 C 286.547 295.093,286.489 296.631,286.489 300.391 M334.468 310.631 L 334.375 327.707 330.371 327.834 L 326.367 327.960 330.383 328.043 C 333.299 328.102,334.451 327.991,334.587 327.637 C 334.690 327.368,334.726 319.590,334.668 310.352 L 334.562 293.555 334.468 310.631 M176.735 311.523 C 176.735 317.754,176.789 320.248,176.855 317.066 C 176.921 313.884,176.920 308.786,176.854 305.738 C 176.789 302.689,176.735 305.293,176.735 311.523 M184.474 304.102 C 184.478 304.961,184.558 305.267,184.651 304.781 C 184.745 304.295,184.741 303.592,184.643 303.218 C 184.546 302.845,184.469 303.242,184.474 304.102 M213.406 307.813 C 213.406 309.209,213.477 309.780,213.564 309.082 C 213.650 308.384,213.650 307.241,213.564 306.543 C 213.477 305.845,213.406 306.416,213.406 307.813 M237.997 307.031 C 237.997 307.998,238.073 308.394,238.166 307.910 C 238.259 307.427,238.259 306.636,238.166 306.152 C 238.073 305.669,237.997 306.064,237.997 307.031 M286.490 320.508 C 286.490 324.375,286.548 325.904,286.619 323.906 C 286.690 321.908,286.690 318.744,286.619 316.875 C 286.547 315.006,286.489 316.641,286.490 320.508 M61.719 327.734 L 57.617 327.972 61.598 328.049 C 63.917 328.093,65.680 327.962,65.820 327.734 C 65.953 327.520,66.007 327.378,65.941 327.420 C 65.875 327.462,63.975 327.604,61.719 327.734 M77.637 328.022 C 78.765 328.101,80.610 328.101,81.738 328.022 C 82.866 327.943,81.943 327.879,79.688 327.879 C 77.432 327.879,76.509 327.943,77.637 328.022 M114.355 328.022 C 115.483 328.101,117.329 328.101,118.457 328.022 C 119.585 327.943,118.662 327.879,116.406 327.879 C 114.150 327.879,113.228 327.943,114.355 328.022 M130.190 328.023 C 131.433 328.101,133.367 328.101,134.487 328.022 C 135.607 327.943,134.590 327.880,132.227 327.880 C 129.863 327.881,128.947 327.946,130.190 328.023 M163.965 328.020 C 164.878 328.103,166.372 328.103,167.285 328.020 C 168.198 327.938,167.451 327.871,165.625 327.871 C 163.799 327.871,163.052 327.938,163.965 328.020 M179.395 328.021 C 180.415 328.102,182.085 328.102,183.105 328.021 C 184.126 327.941,183.291 327.875,181.250 327.875 C 179.209 327.875,178.374 327.941,179.395 328.021 M215.527 328.022 C 216.655 328.101,218.501 328.101,219.629 328.022 C 220.757 327.943,219.834 327.879,217.578 327.879 C 215.322 327.879,214.399 327.943,215.527 328.022 M279.980 328.020 C 280.894 328.103,282.388 328.103,283.301 328.020 C 284.214 327.938,283.467 327.871,281.641 327.871 C 279.814 327.871,279.067 327.938,279.980 328.020 " stroke="none" fill="black" fill-rule="evenodd"></path><path id="path3" d="M204.206 77.627 C 204.908 77.714,205.963 77.712,206.550 77.623 C 207.137 77.534,206.562 77.463,205.273 77.465 C 203.984 77.467,203.504 77.540,204.206 77.627 M214.556 77.624 C 215.150 77.714,216.029 77.711,216.509 77.619 C 216.990 77.526,216.504 77.453,215.430 77.455 C 214.355 77.458,213.962 77.534,214.556 77.624 M258.749 173.828 C 258.749 176.943,258.810 178.218,258.884 176.660 C 258.958 175.103,258.958 172.554,258.884 170.996 C 258.810 169.438,258.749 170.713,258.749 173.828 M258.735 183.203 C 258.735 185.244,258.800 186.079,258.881 185.059 C 258.961 184.038,258.961 182.368,258.881 181.348 C 258.800 180.327,258.735 181.162,258.735 183.203 " stroke="none" fill="none" fill-rule="evenodd"></path><path id="path4" d="M314.203 289.844 C 314.203 291.885,314.269 292.720,314.350 291.699 C 314.430 290.679,314.430 289.009,314.350 287.988 C 314.269 286.968,314.203 287.803,314.203 289.844 M288.978 293.257 C 290.113 293.336,291.871 293.336,292.884 293.255 C 293.897 293.175,292.969 293.110,290.820 293.111 C 288.672 293.112,287.843 293.178,288.978 293.257 M184.532 311.328 C 184.532 314.658,184.592 316.021,184.665 314.355 C 184.739 312.690,184.739 309.966,184.665 308.301 C 184.592 306.636,184.532 307.998,184.532 311.328 M269.272 308.984 C 269.272 310.596,269.341 311.255,269.425 310.449 C 269.509 309.644,269.509 308.325,269.425 307.520 C 269.341 306.714,269.272 307.373,269.272 308.984 M254.020 312.009 C 255.479 312.084,257.764 312.084,259.098 312.008 C 260.432 311.932,259.238 311.870,256.445 311.871 C 253.652 311.871,252.561 311.933,254.020 312.009 M184.514 320.898 C 184.512 322.832,184.579 323.672,184.660 322.766 C 184.742 321.859,184.743 320.277,184.663 319.250 C 184.582 318.223,184.515 318.965,184.514 320.898 M141.706 318.642 C 142.408 318.729,143.463 318.728,144.050 318.638 C 144.637 318.549,144.063 318.478,142.773 318.480 C 141.484 318.483,141.004 318.556,141.706 318.642 M147.559 318.649 C 148.901 318.725,151.099 318.725,152.441 318.649 C 153.784 318.572,152.686 318.510,150.000 318.510 C 147.314 318.510,146.216 318.572,147.559 318.649 M213.388 320.703 C 213.388 321.670,213.464 322.065,213.557 321.582 C 213.650 321.099,213.650 320.308,213.557 319.824 C 213.464 319.341,213.388 319.736,213.388 320.703 M184.466 326.172 C 184.466 326.924,184.546 327.231,184.644 326.855 C 184.743 326.479,184.743 325.864,184.644 325.488 C 184.546 325.112,184.466 325.420,184.466 326.172 " stroke="none" fill="none" fill-rule="evenodd"></path></g></svg>
